{"title":"The.Story.of.Luke.2012.WEBRip XViD juggs","uid":8386495,"size":746619821,"categoryP":"video","categoryS":"movies","magnet":"?xt=urn:btih:0005c242978ce33417253eda84da6f3bc89294b8&amp;dn=The.Story.of.Luke.2012.WEBRip+XViD+juggs&amp;tr=udp%3A%2F%2Ftracker.openbittorrent.com%3A80&amp;tr=udp%3A%2F%2Fopen.demonii.com%3A1337&amp;tr=udp%3A%2F%2Ftracker.coppersurfer.tk%3A6969&amp;tr=udp%3A%2F%2Fexodus.desync.com%3A6969","seeders":8,"leechers":2,"uploader":"juggs99","files":3,"time":1366299511,"description":"Source : NGB (Thanks)\n &lt;a href=&quot;\nhttp://www.imdb.com/title/tt1038693/&quot; rel=&quot;nofollow&quot; target=&quot;_NEW&quot;&gt;\nhttp://www.imdb.com/title/tt1038693/&lt;/a&gt;\n\n\nFormat                                   : AVI\nFormat/Info                              : Audio Video Interleave\nFile size                                : 700 MiB\nDuration                                 : 1h 35mn\nOverall bit rate                         : 1 025 Kbps\nWriting library                          : VirtualDub build 32842/release\n\nVideo\nID                                       : 0\nFormat                                   : MPEG-4 Visual\nFormat profile                           : Advanced Simple@L5\nFormat settings, BVOP                    : 2\nFormat settings, QPel                    : No\nFormat settings, GMC                     : No warppoints\nFormat settings, Matrix                  : Default (H.263)\nMuxing mode                              : Packed bitstream\nCodec ID                                 : XVID\nCodec ID/Hint                            : XviD\nDuration                                 : 1h 35mn\nBit rate                                 : 888 Kbps\nWidth                                    : 640 pixels\nHeight                                   : 352 pixels\nDisplay aspect ratio                     : 16:9\nFrame rate                               : 23.976 fps\nColor space                              : YUV\nChroma subsampling                       : 4:2:0\nBit depth                                : 8 bits\nScan type                                : Progressive\nCompression mode                         : Lossy\nBits/(Pixel*Frame)                       : 0.164\nStream size                              : 606 MiB (87%)\nWriting library                          : XviD 64\n\nAudio\nID                                       : 1\nFormat                                   : MPEG Audio\nFormat version                           : Version 1\nFormat profile                           : Layer 3\nCodec ID                                 : 55\nCodec ID/Hint                            : MP3\nDuration                                 : 1h 35mn\nBit rate mode                            : Constant\nBit rate                                 : 128 Kbps\nChannel(s)                               : 2 channels\nSampling rate                            : 44.1 KHz\nCompression mode                         : Lossy\nStream size                              : 87.4 MiB (12%)\nAlignment                                : Split accross interleaves\nInterleave, duration                     : 42 ms (1.00 video frame)\nInterleave, preload duration             : 500 ms\nWriting library                          : LAME3.99r\nEncoding settings                        : -m s -V 4 -q 3 -lowpass 17 -b 128\n\nPlot\nSheltered by his grandparents, Luke, a young man with autism, is thrust into a world that doesn't expect anything from him. But Luke is on a quest for a job and true love. And he isn't taking no for an answer.\n\n &lt;a href=&quot;\nhttp://www.shotpix.com/images/37309363587485348147.png&quot; rel=&quot;nofollow&quot; target=&quot;_NEW&quot;&gt;\nhttp://www.shotpix.com/images/37309363587485348147.png&lt;/a&gt; &lt;a href=&quot;\nhttp://www.shotpix.com/images/90257318384522092780.png&quot; rel=&quot;nofollow&quot; target=&quot;_NEW&quot;&gt;\nhttp://www.shotpix.com/images/90257318384522092780.png&lt;/a&gt; &lt;a href=&quot;\nhttp://www.shotpix.com/images/83688473187778122904.png&quot; rel=&quot;nofollow&quot; target=&quot;_NEW&quot;&gt;\nhttp://www.shotpix.com/images/83688473187778122904.png&lt;/a&gt;","torrent":{"xt":"urn:btih:0005c242978ce33417253eda84da6f3bc89294b8","amp;dn":"The.Story.of.Luke.2012.WEBRip+XViD+juggs","amp;tr":["udp%3A%2F%2Ftracker.openbittorrent.com%3A80","udp%3A%2F%2Fopen.demonii.com%3A1337","udp%3A%2F%2Ftracker.coppersurfer.tk%3A6969","udp%3A%2F%2Fexodus.desync.com%3A6969"],"infoHash":"0005c242978ce33417253eda84da6f3bc89294b8","infoHashBuffer":{"type":"Buffer","data":[0,5,194,66,151,140,227,52,23,37,62,218,132,218,111,59,200,146,148,184]},"announce":[],"urlList":[]}}